# xmcd CD database file
#
# Track frame offsets:
#	150
#	20140
#	36948
#	56781
#	71325
#	89475
#	118325
#	135282
#	154155
#	169125
#
# Disc length: 2466 seconds
#
# Revision: 0
# Processed by: cddbd v1.5.1PL2 Copyright (c) Steve Scherf et al.
# Submitted via: CDex 1.50Beta6
#
DISCID=8b09a00a
DTITLE=Sebastian Sidi - Passion
DYEAR=2002
DGENRE=New Age
TTITLE0=Longing
TTITLE1=Passion
TTITLE2=The Last Fire
TTITLE3=Destiny
TTITLE4=Annastasia
TTITLE5=Sweet Merci
TTITLE6=Blind Tear
TTITLE7=The Quest
TTITLE8=Miriam
TTITLE9=Desire
EXTD=YEAR: 2002
EXTT0=
EXTT1=
EXTT2=
EXTT3=
EXTT4=
EXTT5=
EXTT6=
EXTT7=
EXTT8=
EXTT9=
PLAYORDER=
